<svg xmlns="http://www.w3.org/2000/svg" viewBox="0 0 256 256" width="256" height="256">
  <defs>
    <clipPath id="roundedSquare">
      <rect x="0" y="0" width="256" height="256" rx="56" ry="56" />
    </clipPath>
  </defs>

  <rect x="0" y="0" width="256" height="256" rx="56" ry="56" fill="#1a1a1a" />
  <rect x="0" y="0" width="256" height="256" rx="56" ry="56" fill="none" stroke="#2a2a2a" stroke-width="2" />

  <g fill="#ffffff">
    <path d="M 50 70 L 110 70 L 110 90 L 75 90 L 75 115 L 105 115 L 105 135 L 75 135 L 75 186 L 50 186 Z" />
    <rect x="120" y="100" width="16" height="56" rx="2" />
    <path d="M 145 70 L 206 70 L 206 95 Q 206 110 191 110 L 170 110 L 206 161 L 206 186 L 145 186 L 145 161 L 181 161 L 145 110 L 145 95 Q 145 70 145 70 Z" />
  </g>

  <rect x="50" y="200" width="156" height="3" rx="1.5" fill="#ffffff" opacity="0.3" />
</svg>
